<svg width="20" height="20" viewBox="0 0 20 20" fill="none" xmlns="http://www.w3.org/2000/svg">
<path fill-rule="evenodd" clip-rule="evenodd" d="M8.5171 9.49638L10.6124 5.86421L8.5171 2.23206H4.32652L2.23124 5.86421L4.32652 9.49638H8.5171ZM11.4664 5.38051C11.465 5.37807 11.4636 5.37562 11.4622 5.37317L9.3668 1.74103C9.19151 1.43718 8.86758 1.25 8.5171 1.25H4.32652C3.97595 1.25 3.65202 1.43718 3.47674 1.74103L1.38146 5.37317C1.20618 5.67703 1.20618 6.05138 1.38146 6.35524L3.47674 9.98739L3.48413 10L3.47674 10.0126L1.38146 13.6448C1.20618 13.9486 1.20618 14.3229 1.38146 14.6268L3.47674 18.259C3.65202 18.5628 3.97595 18.75 4.32652 18.75H8.5171C8.86758 18.75 9.19151 18.5628 9.3668 18.259L11.4622 14.6268C11.4656 14.6208 11.469 14.6148 11.4723 14.6087C11.4759 14.6087 11.4794 14.6087 11.4829 14.6087H15.6735C16.0241 14.6087 16.348 14.4216 16.5233 14.1177L18.6185 10.4856C18.7938 10.1818 18.7938 9.80745 18.6185 9.5036L16.5233 5.8714C16.348 5.56755 16.0241 5.38037 15.6735 5.38037H11.483C11.4774 5.38037 11.4719 5.38042 11.4664 5.38051ZM8.5171 17.7679L10.6124 14.1358L8.5171 10.5036H4.32652L2.23124 14.1358L4.32652 17.7679H8.5171ZM17.7687 9.99461L15.6735 13.6267H11.483L9.38764 9.99461L11.483 6.36243H15.6735L17.7687 9.99461Z" fill="white"/>
</svg>
