<svg width="20" height="20" viewBox="0 0 20 20" fill="none" xmlns="http://www.w3.org/2000/svg">
<path d="M7.92512 3.77753V7.04832C7.92512 7.12874 7.90572 7.20797 7.86857 7.27929L3.09631 16.4417C2.74956 17.1074 3.23259 17.9036 3.98322 17.9036H15.9975C16.7467 17.9036 17.2298 17.1102 16.886 16.4446L12.1507 7.2787C12.1141 7.20775 12.0949 7.12906 12.0949 7.0492V3.78766C12.0949 3.78207 12.0995 3.77753 12.1051 3.77753H12.8618C13.3389 3.77753 13.7256 3.39077 13.7256 2.91367V2.91367C13.7256 2.43657 13.3389 2.0498 12.8618 2.0498H10H7.13826C6.66116 2.0498 6.2744 2.43657 6.2744 2.91367V2.91367C6.2744 3.39077 6.66117 3.77753 7.13826 3.77753H7.92512ZM7.92512 3.77753H10" stroke="white" stroke-width="0.8" stroke-linecap="round"/>
<path d="M10.0166 10V11.198M10.0166 15V13.9183M8.25211 10.7398L8.9864 11.4754M11.7815 14.2752L11.0472 13.5397M7.48724 12.4979L8.57537 12.5M12.4872 12.5075L11.4996 12.5056M8.25211 14.2752L8.9864 13.5397M11.7815 10.7398L11.0015 11.5211" stroke="white"/>
<ellipse cx="9.98726" cy="12.5036" rx="1.45833" ry="1.45833" stroke="white" stroke-width="0.5"/>
</svg>
